<svg width="200" height="69" viewBox="0 0 200 69" fill="none" xmlns="http://www.w3.org/2000/svg">
<path d="M100.217 42.4133C111.939 42.4133 121.434 32.9223 121.434 21.2066C121.434 9.49096 111.939 0 100.217 0C88.4956 0 79 9.49096 79 21.2066C79 32.9223 88.4956 42.4133 100.217 42.4133Z" fill="white"/>
<path d="M102.872 57.0534V42.2698C107.324 41.6598 111.596 39.6683 115.024 36.2415C123.317 27.9526 123.317 14.5145 115.024 6.2077C113.857 5.04151 112.583 4.0368 111.237 3.19356C111.273 3.28326 111.309 3.40885 111.309 3.5165V4.05474C111.309 4.48533 110.95 4.84416 110.519 4.84416H109.98C109.549 4.84416 109.19 4.48533 109.19 4.05474V3.5165C109.19 3.08591 109.549 2.72708 109.98 2.72708H110.447C109.944 2.44002 109.424 2.1709 108.903 1.93766C108.831 2.24267 108.562 2.45796 108.239 2.45796H107.18C106.803 2.45796 106.498 2.15296 106.498 1.77619V0.986773C105.618 0.699712 104.721 0.484416 103.805 0.322944C103.805 0.358827 103.805 0.376768 103.805 0.412651V1.93766C103.805 2.18884 103.608 2.3862 103.357 2.3862H101.849C101.598 2.3862 101.4 2.18884 101.4 1.93766V0.430592C101.4 0.26912 101.472 0.143531 101.598 0.053824C100.61 -0.0179413 99.623 -0.0179413 98.6358 0.053824C98.7435 0.107648 98.8153 0.215296 98.8153 0.340885V2.08119C98.8153 2.26061 98.6717 2.42208 98.4742 2.42208H96.7331C96.5536 2.42208 96.392 2.27855 96.392 2.08119V0.340885C96.392 0.340885 96.392 0.322944 96.392 0.305003C95.5304 0.448533 94.6868 0.645888 93.8431 0.897066V2.26061C93.8431 2.3862 93.7354 2.49384 93.6098 2.49384H91.6353C91.5096 2.49384 91.4019 2.3862 91.4019 2.26061V1.79413C90.8634 2.02737 90.3428 2.29649 89.8223 2.56561H91.0788C91.2045 2.56561 91.3121 2.67326 91.3121 2.79885V4.77239C91.3121 4.89798 91.2045 5.00563 91.0788 5.00563H89.1043C88.9786 5.00563 88.8709 4.89798 88.8709 4.77239V3.12179C87.4708 3.98298 86.1605 5.00563 84.9578 6.2077C83.7552 7.40977 82.7141 8.73743 81.8704 10.1189H83.5218C83.6475 10.1189 83.7552 10.2266 83.7552 10.3521V12.3257C83.7552 12.4513 83.6475 12.5589 83.5218 12.5589H81.5473C81.4216 12.5589 81.3139 12.4513 81.3139 12.3257V11.0698C81.0267 11.5901 80.7754 12.1104 80.5421 12.6486H80.9908C81.1165 12.6486 81.2242 12.7563 81.2242 12.8819V14.8554C81.2242 14.981 81.1165 15.0887 80.9908 15.0887H79.6446C79.3933 15.9319 79.1958 16.7751 79.0522 17.6363C79.0522 17.6363 79.0522 17.6363 79.0702 17.6363H80.8113C80.9908 17.6363 81.1524 17.7978 81.1524 17.9772V19.7175C81.1524 19.8969 81.0088 20.0584 80.8113 20.0584H79.0702C78.9445 20.0584 78.8368 19.9866 78.783 19.8969C78.7291 20.8837 78.7291 21.8525 78.783 22.8393C78.8727 22.7317 78.9984 22.642 79.142 22.642H80.6677C80.919 22.642 81.1165 22.8393 81.1165 23.0905V24.6155C81.1165 24.8667 80.919 25.064 80.6677 25.064H79.142C79.142 25.064 79.0881 25.064 79.0522 25.064C79.2138 25.979 79.4471 26.8761 79.7164 27.7552H80.4882C80.8652 27.7552 81.1703 28.0602 81.1703 28.437V29.4955C81.1703 29.8185 80.9549 30.0876 80.6498 30.1594C80.8831 30.6797 81.1524 31.182 81.4396 31.6844V31.2179C81.4396 30.7873 81.7986 30.4285 82.2294 30.4285H82.7679C83.1987 30.4285 83.5577 30.7873 83.5577 31.2179V31.7562C83.5577 32.1867 83.1987 32.5456 82.7679 32.5456H82.2294C82.1217 32.5456 82.014 32.5276 81.9063 32.4738C82.75 33.8194 83.7552 35.0753 84.9219 36.2415C88.3324 39.6503 92.6225 41.6598 97.0741 42.2698V57.0534H90.0915V59.4755H0V69.0023H200V59.4755H109.855V57.0534H102.872ZM81.2421 20.5608C81.2421 20.3096 81.4396 20.1122 81.6909 20.1122H83.2167C83.468 20.1122 83.6654 20.3096 83.6654 20.5608V22.0858C83.6654 22.337 83.468 22.5343 83.2167 22.5343H81.6909C81.4396 22.5343 81.2421 22.337 81.2421 22.0858V20.5608ZM83.7013 17.1878C83.7013 17.3672 83.5577 17.5287 83.3603 17.5287H81.6191C81.4396 17.5287 81.278 17.3672 81.278 17.1878V15.4475C81.278 15.2681 81.4216 15.1066 81.6191 15.1066H83.3603C83.5398 15.1066 83.7013 15.2681 83.7013 15.4475V17.1878ZM83.7552 26.9479C83.7552 27.3246 83.45 27.6296 83.0731 27.6296H82.014C81.637 27.6296 81.3319 27.3246 81.3319 26.9479V25.8893C81.3319 25.5126 81.637 25.2076 82.014 25.2076H83.0731C83.45 25.2076 83.7552 25.5126 83.7552 25.8893V26.9479ZM89.571 39.0762C89.571 38.7353 89.8402 38.4662 90.1813 38.4662C90.5223 38.4662 90.7916 38.7353 90.7916 39.0762C90.7916 39.4171 90.5223 39.6862 90.1813 39.6862C89.8402 39.6862 89.571 39.4171 89.571 39.0762ZM89.3915 33.945C89.3915 33.5682 89.6966 33.2632 90.0736 33.2632H90.2351C90.6121 33.2632 90.9173 33.5682 90.9173 33.945V34.1065C90.9173 34.4832 90.6121 34.7882 90.2351 34.7882H90.0736C89.6966 34.7882 89.3915 34.4832 89.3915 34.1065V33.945ZM89.212 28.8676C89.212 28.437 89.571 28.0782 90.0018 28.0782H90.2351C90.6659 28.0782 91.0249 28.437 91.0249 28.8676V29.1008C91.0249 29.5314 90.6659 29.8903 90.2351 29.8903H90.0018C89.571 29.8903 89.212 29.5314 89.212 29.1008V28.8676ZM89.0504 23.6646C89.0504 23.234 89.4094 22.8752 89.8402 22.8752H90.3787C90.8095 22.8752 91.1685 23.234 91.1685 23.6646V24.2029C91.1685 24.6334 90.8095 24.9923 90.3787 24.9923H89.8402C89.4094 24.9923 89.0504 24.6334 89.0504 24.2029V23.6646ZM86.8785 36.4568C86.8785 36.08 87.1836 35.775 87.5606 35.775H87.7221C88.0991 35.775 88.4042 36.08 88.4042 36.4568V36.6183C88.4042 36.995 88.0991 37.3 87.7221 37.3H87.5606C87.1836 37.3 86.8785 36.995 86.8785 36.6183V36.4568ZM86.699 31.3794C86.699 30.9488 87.058 30.59 87.4888 30.59H87.7221C88.1529 30.59 88.5119 30.9488 88.5119 31.3794V31.6126C88.5119 32.0432 88.1529 32.402 87.7221 32.402H87.4888C87.058 32.402 86.699 32.0432 86.699 31.6126V31.3794ZM86.5374 26.1764C86.5374 25.7458 86.8964 25.387 87.3272 25.387H87.8657C88.2965 25.387 88.6555 25.7458 88.6555 26.1764V26.7146C88.6555 27.1452 88.2965 27.5041 87.8657 27.5041H87.3272C86.8964 27.5041 86.5374 27.1452 86.5374 26.7146V26.1764ZM86.3579 20.8658C86.3579 20.489 86.6631 20.184 87.04 20.184H88.0991C88.476 20.184 88.7812 20.489 88.7812 20.8658V21.9243C88.7812 22.3011 88.476 22.6061 88.0991 22.6061H87.04C86.6631 22.6061 86.3579 22.3011 86.3579 21.9243V20.8658ZM84.186 33.8912C84.186 33.4606 84.545 33.1018 84.9758 33.1018H85.2091C85.6399 33.1018 85.9989 33.4606 85.9989 33.8912V34.1244C85.9989 34.555 85.6399 34.9138 85.2091 34.9138H84.9758C84.545 34.9138 84.186 34.555 84.186 34.1244V33.8912ZM84.0065 28.6882C84.0065 28.2576 84.3655 27.8988 84.7963 27.8988H85.3348C85.7656 27.8988 86.1246 28.2576 86.1246 28.6882V29.2264C86.1246 29.657 85.7656 30.0158 85.3348 30.0158H84.7963C84.3655 30.0158 84.0065 29.657 84.0065 29.2264V28.6882ZM83.8449 23.3776C83.8449 23.0008 84.1501 22.6958 84.527 22.6958H85.5861C85.963 22.6958 86.2682 23.0008 86.2682 23.3776V24.4361C86.2682 24.8129 85.963 25.1179 85.5861 25.1179H84.527C84.1501 25.1179 83.8449 24.8129 83.8449 24.4361V23.3776ZM83.7731 18.049C83.7731 17.7978 83.9706 17.6004 84.2219 17.6004H85.7476C85.9989 17.6004 86.1964 17.7978 86.1964 18.049V19.574C86.1964 19.8252 85.9989 20.0225 85.7476 20.0225H84.2219C83.9706 20.0225 83.7731 19.8252 83.7731 19.574V18.049ZM83.7911 12.9178C83.7911 12.7383 83.9347 12.5769 84.1321 12.5769H85.8733C86.0528 12.5769 86.2143 12.7204 86.2143 12.9178V14.6581C86.2143 14.8375 86.0707 14.999 85.8733 14.999H84.1321C83.9526 14.999 83.7911 14.8375 83.7911 14.6581V12.9178ZM86.2861 9.81391C86.2861 9.9395 86.1784 10.0471 86.0528 10.0471H84.0783C83.9526 10.0471 83.8449 9.9395 83.8449 9.81391V7.84036C83.8449 7.71477 83.9526 7.60712 84.0783 7.60712H86.0528C86.1784 7.60712 86.2861 7.71477 86.2861 7.84036V9.81391ZM86.2861 15.5372C86.2861 15.286 86.4836 15.0887 86.7349 15.0887H88.2606C88.5119 15.0887 88.7094 15.286 88.7094 15.5372V17.0443C88.7094 17.2954 88.5119 17.4928 88.2606 17.4928H86.7349C86.4836 17.4928 86.2861 17.2954 86.2861 17.0443V15.5372ZM86.3041 10.406C86.3041 10.2266 86.4656 10.0651 86.6451 10.0651H88.3863C88.5658 10.0651 88.7273 10.2086 88.7273 10.406V12.1463C88.7273 12.3257 88.5837 12.4872 88.3863 12.4872H86.6451C86.4656 12.4872 86.3041 12.3436 86.3041 12.1463V10.406ZM88.7991 7.30212C88.7991 7.42771 88.6914 7.53536 88.5658 7.53536H86.5913C86.4656 7.53536 86.3579 7.42771 86.3579 7.30212V5.32858C86.3579 5.20299 86.4656 5.09534 86.5913 5.09534H88.5658C88.6914 5.09534 88.7991 5.20299 88.7991 5.32858V7.30212ZM88.7991 13.0075C88.7991 12.7563 88.9966 12.5589 89.2479 12.5589H90.7557C91.007 12.5589 91.2045 12.7563 91.2045 13.0075V14.5325C91.2045 14.7837 91.007 14.981 90.7557 14.981H89.2479C88.9966 14.981 88.7991 14.7837 88.7991 14.5325V13.0075ZM91.2404 9.63449C91.2404 9.81391 91.0967 9.97538 90.8993 9.97538H89.1581C88.9786 9.97538 88.8171 9.83185 88.8171 9.63449V7.89419C88.8171 7.71477 88.9607 7.5533 89.1581 7.5533H90.8993C91.0788 7.5533 91.2404 7.71477 91.2404 7.89419V9.63449ZM91.2942 19.4125C91.2942 19.7893 90.9891 20.0943 90.6121 20.0943H89.553C89.1761 20.0943 88.8709 19.7893 88.8709 19.4125V18.354C88.8709 17.9772 89.1761 17.6722 89.553 17.6722H90.6121C90.9891 17.6722 91.2942 17.9772 91.2942 18.354V19.4125ZM92.084 36.5465C92.084 36.2056 92.3533 35.9365 92.6943 35.9365C93.0354 35.9365 93.3046 36.2056 93.3046 36.5465C93.3046 36.8874 93.0354 37.1565 92.6943 37.1565C92.3533 37.1565 92.084 36.8874 92.084 36.5465ZM91.9045 31.4332C91.9045 31.0564 92.2097 30.7514 92.5866 30.7514H92.7482C93.1251 30.7514 93.4303 31.0564 93.4303 31.4332V31.5947C93.4303 31.9715 93.1251 32.2765 92.7482 32.2765H92.5866C92.2097 32.2765 91.9045 31.9715 91.9045 31.5947V31.4332ZM91.743 26.3379C91.743 25.9073 92.102 25.5485 92.5328 25.5485H92.7661C93.1969 25.5485 93.5559 25.9073 93.5559 26.3379V26.5711C93.5559 27.0017 93.1969 27.3605 92.7661 27.3605H92.5328C92.102 27.3605 91.743 27.0017 91.743 26.5711V26.3379ZM91.5634 21.1528C91.5634 20.7222 91.9225 20.3634 92.3533 20.3634H92.8918C93.3226 20.3634 93.6816 20.7222 93.6816 21.1528V21.6911C93.6816 22.1217 93.3226 22.4805 92.8918 22.4805H92.3533C91.9225 22.4805 91.5634 22.1217 91.5634 21.6911V21.1528ZM91.3121 10.4957C91.3121 10.2445 91.5096 10.0471 91.7609 10.0471H93.2687C93.52 10.0471 93.7175 10.2445 93.7175 10.4957V12.0027C93.7175 12.2539 93.52 12.4513 93.2687 12.4513H91.7609C91.5096 12.4513 91.3121 12.2539 91.3121 12.0027V10.4957ZM93.7713 7.12271C93.7713 7.30212 93.6277 7.46359 93.4303 7.46359H91.6891C91.5096 7.46359 91.3481 7.32006 91.3481 7.12271V5.3824C91.3481 5.20299 91.4917 5.04151 91.6891 5.04151H93.4303C93.6098 5.04151 93.7713 5.18504 93.7713 5.3824V7.12271ZM93.8252 16.8828C93.8252 17.2596 93.52 17.5646 93.1431 17.5646H92.084C91.7071 17.5646 91.4019 17.2596 91.4019 16.8828V15.8243C91.4019 15.4475 91.7071 15.1425 92.084 15.1425H93.1431C93.52 15.1425 93.8252 15.4475 93.8252 15.8243V16.8828ZM117.25 11.3927C117.25 11.0519 117.519 10.7827 117.86 10.7827C118.201 10.7827 118.471 11.0519 118.471 11.3927C118.471 11.7336 118.201 12.0027 117.86 12.0027C117.519 12.0027 117.25 11.7336 117.25 11.3927ZM114.737 13.9045C114.737 13.5636 115.006 13.2945 115.347 13.2945C115.688 13.2945 115.958 13.5636 115.958 13.9045C115.958 14.2454 115.688 14.5145 115.347 14.5145C115.006 14.5145 114.737 14.2454 114.737 13.9045ZM114.558 8.79125C114.558 8.41448 114.863 8.10948 115.24 8.10948H115.401C115.778 8.10948 116.083 8.41448 116.083 8.79125V8.95272C116.083 9.32949 115.778 9.63449 115.401 9.63449H115.24C114.863 9.63449 114.558 9.32949 114.558 8.95272V8.79125ZM112.224 16.4343C112.224 16.0934 112.493 15.8243 112.834 15.8243C113.175 15.8243 113.445 16.0934 113.445 16.4343C113.445 16.7751 113.175 17.0443 112.834 17.0443C112.493 17.0443 112.224 16.7751 112.224 16.4343ZM112.045 11.303C112.045 10.9263 112.35 10.6213 112.727 10.6213H112.888C113.265 10.6213 113.57 10.9263 113.57 11.303V11.4645C113.57 11.8413 113.265 12.1463 112.888 12.1463H112.727C112.35 12.1463 112.045 11.8413 112.045 11.4645V11.303ZM111.883 6.2077C111.883 5.77711 112.242 5.41828 112.673 5.41828H112.906C113.337 5.41828 113.696 5.77711 113.696 6.2077V6.44094C113.696 6.87153 113.337 7.23036 112.906 7.23036H112.673C112.242 7.23036 111.883 6.87153 111.883 6.44094V6.2077ZM109.711 18.946C109.711 18.6052 109.98 18.336 110.321 18.336C110.662 18.336 110.932 18.6052 110.932 18.946C110.932 19.2869 110.662 19.556 110.321 19.556C109.98 19.556 109.711 19.2869 109.711 18.946ZM109.532 13.8148C109.532 13.4381 109.837 13.1331 110.214 13.1331H110.375C110.752 13.1331 111.057 13.4381 111.057 13.8148V13.9763C111.057 14.3531 110.752 14.6581 110.375 14.6581H110.214C109.837 14.6581 109.532 14.3531 109.532 13.9763V13.8148ZM109.352 8.73743C109.352 8.30684 109.711 7.94801 110.142 7.94801H110.375C110.806 7.94801 111.165 8.30684 111.165 8.73743V8.97066C111.165 9.40126 110.806 9.76008 110.375 9.76008H110.142C109.711 9.76008 109.352 9.40126 109.352 8.97066V8.73743ZM107.18 21.4578C107.18 21.1169 107.449 20.8478 107.79 20.8478C108.131 20.8478 108.401 21.1169 108.401 21.4578C108.401 21.7987 108.131 22.0678 107.79 22.0678C107.449 22.0678 107.18 21.7987 107.18 21.4578ZM107.018 16.3266C107.018 15.9498 107.324 15.6448 107.701 15.6448H107.862C108.239 15.6448 108.544 15.9498 108.544 16.3266V16.4881C108.544 16.8648 108.239 17.1699 107.862 17.1699H107.701C107.324 17.1699 107.018 16.8648 107.018 16.4881V16.3266ZM106.839 11.2492C106.839 10.8186 107.198 10.4598 107.629 10.4598H107.862C108.293 10.4598 108.652 10.8186 108.652 11.2492V11.4825C108.652 11.913 108.293 12.2719 107.862 12.2719H107.629C107.198 12.2719 106.839 11.913 106.839 11.4825V11.2492ZM106.659 6.04623C106.659 5.61564 107.018 5.25681 107.449 5.25681H107.988C108.419 5.25681 108.778 5.61564 108.778 6.04623V6.58447C108.778 7.01506 108.419 7.37389 107.988 7.37389H107.449C107.018 7.37389 106.659 7.01506 106.659 6.58447V6.04623ZM99.641 29.0291C99.641 28.6882 99.9102 28.4191 100.251 28.4191C100.592 28.4191 100.862 28.6882 100.862 29.0291C100.862 29.37 100.592 29.6391 100.251 29.6391C99.9102 29.6391 99.641 29.37 99.641 29.0291ZM100.269 33.6041C100.521 33.6041 100.718 33.8015 100.718 34.0526C100.718 34.3218 100.521 34.5191 100.269 34.5191C100.018 34.5191 99.8205 34.3218 99.8205 34.0706C99.8205 33.8015 100.018 33.6041 100.269 33.6041ZM99.4615 24.0414V23.8799C99.4615 23.5031 99.7666 23.1981 100.144 23.1981H100.305C100.682 23.1981 100.987 23.5031 100.987 23.8799V24.0414C100.987 24.4181 100.682 24.7232 100.305 24.7232H100.144C99.7666 24.7232 99.4615 24.4181 99.4615 24.0414ZM99.282 19.0357V18.8025C99.282 18.3719 99.641 18.0131 100.072 18.0131H100.305C100.736 18.0131 101.095 18.3719 101.095 18.8025V19.0357C101.095 19.4663 100.736 19.8252 100.305 19.8252H100.072C99.641 19.8252 99.282 19.4663 99.282 19.0357ZM99.1204 14.1378V13.5995C99.1204 13.1689 99.4794 12.8101 99.9102 12.8101H100.449C100.88 12.8101 101.239 13.1689 101.239 13.5995V14.1378C101.239 14.5684 100.88 14.9272 100.449 14.9272H99.9102C99.4794 14.9272 99.1204 14.5684 99.1204 14.1378ZM97.7562 37.0488C97.5049 37.0488 97.3075 36.8515 97.3075 36.6003C97.3075 36.3312 97.5049 36.1338 97.7562 36.1338C98.0075 36.1338 98.205 36.3312 98.205 36.5824C98.205 36.8515 98.0075 37.0488 97.7562 37.0488ZM97.11 31.5229C97.11 31.182 97.3793 30.9129 97.7203 30.9129C98.0614 30.9129 98.3306 31.182 98.3306 31.5229C98.3306 31.8638 98.0614 32.1329 97.7203 32.1329C97.3793 32.1329 97.11 31.8638 97.11 31.5229ZM96.9485 26.3917C96.9485 26.0149 97.2536 25.7099 97.6306 25.7099H97.7921C98.1691 25.7099 98.4742 26.0149 98.4742 26.3917V26.5532C98.4742 26.9299 98.1691 27.2349 97.7921 27.2349H97.6306C97.2536 27.2349 96.9485 26.9299 96.9485 26.5532V26.3917ZM96.769 21.3143C96.769 20.8837 97.128 20.5249 97.5588 20.5249H97.7921C98.2229 20.5249 98.5819 20.8837 98.5819 21.3143V21.5475C98.5819 21.9781 98.2229 22.337 97.7921 22.337H97.5588C97.128 22.337 96.769 21.9781 96.769 21.5475V21.3143ZM96.6074 16.1113C96.6074 15.6807 96.9664 15.3219 97.3972 15.3219H97.9357C98.3665 15.3219 98.7255 15.6807 98.7255 16.1113V16.6496C98.7255 17.0801 98.3665 17.439 97.9357 17.439H97.3972C96.9664 17.439 96.6074 17.0801 96.6074 16.6496V16.1113ZM94.7765 39.0942C94.7765 38.843 94.974 38.6456 95.2253 38.6456C95.4766 38.6456 95.674 38.843 95.674 39.0942C95.674 39.3633 95.4766 39.5606 95.2253 39.5606C94.974 39.5606 94.7765 39.3633 94.7765 39.1121V39.0942ZM94.597 34.0347C94.597 33.6938 94.8663 33.4247 95.2073 33.4247C95.5484 33.4247 95.8176 33.6938 95.8176 34.0347C95.8176 34.3756 95.5484 34.6447 95.2073 34.6447C94.8663 34.6447 94.597 34.3756 94.597 34.0347ZM94.4355 28.9214C94.4355 28.5447 94.7406 28.2397 95.1176 28.2397H95.2791C95.6561 28.2397 95.9612 28.5447 95.9612 28.9214V29.0829C95.9612 29.4597 95.6561 29.7647 95.2791 29.7647H95.1176C94.7406 29.7647 94.4355 29.4597 94.4355 29.0829V28.9214ZM94.256 23.8261C94.256 23.3955 94.615 23.0367 95.0458 23.0367H95.2791C95.7099 23.0367 96.0689 23.3955 96.0689 23.8261V24.0593C96.0689 24.4899 95.7099 24.8487 95.2791 24.8487H95.0458C94.615 24.8487 94.256 24.4899 94.256 24.0593V23.8261ZM94.0765 18.6231C94.0765 18.1925 94.4355 17.8337 94.8663 17.8337H95.4048C95.8356 17.8337 96.1946 18.1925 96.1946 18.6231V19.1613C96.1946 19.5919 95.8356 19.9508 95.4048 19.9508H94.8663C94.4355 19.9508 94.0765 19.5919 94.0765 19.1613V18.6231ZM93.8431 7.98389C93.8431 7.73271 94.0406 7.53536 94.2919 7.53536H95.8176C96.0689 7.53536 96.2664 7.73271 96.2664 7.98389V9.50891C96.2664 9.76008 96.0689 9.95744 95.8176 9.95744H94.2919C94.0406 9.95744 93.8431 9.76008 93.8431 9.50891V7.98389ZM96.2843 4.59298C96.2843 4.77239 96.1407 4.93387 95.9433 4.93387H94.2021C94.0226 4.93387 93.8611 4.79033 93.8611 4.59298V2.85267C93.8611 2.67326 94.0047 2.51179 94.2021 2.51179H95.9433C96.1228 2.51179 96.2843 2.65532 96.2843 2.85267V4.59298ZM96.3382 14.371C96.3382 14.7478 96.033 15.0528 95.6561 15.0528H94.597C94.2201 15.0528 93.9149 14.7478 93.9149 14.371V13.3125C93.9149 12.9357 94.2201 12.6307 94.597 12.6307H95.6561C96.033 12.6307 96.3382 12.9357 96.3382 13.3125V14.371ZM98.7794 6.97918C98.7794 7.23036 98.5819 7.42771 98.3306 7.42771H96.8049C96.5536 7.42771 96.3561 7.23036 96.3561 6.97918V5.45416C96.3561 5.20299 96.5536 5.00563 96.8049 5.00563H98.3306C98.5819 5.00563 98.7794 5.20299 98.7794 5.45416V6.97918ZM98.8512 11.8592C98.8512 12.236 98.546 12.541 98.1691 12.541H97.11C96.7331 12.541 96.4279 12.236 96.4279 11.8592V10.8007C96.4279 10.4239 96.7331 10.1189 97.11 10.1189H98.1691C98.546 10.1189 98.8512 10.4239 98.8512 10.8007V11.8592ZM101.292 4.46739C101.292 4.71857 101.095 4.91592 100.844 4.91592H99.3358C99.0845 4.91592 98.8871 4.71857 98.8871 4.46739V2.94238C98.8871 2.6912 99.0845 2.49384 99.3358 2.49384H100.844C101.095 2.49384 101.292 2.6912 101.292 2.94238V4.46739ZM101.364 9.34743C101.364 9.7242 101.059 10.0292 100.682 10.0292H99.623C99.2461 10.0292 98.9409 9.7242 98.9409 9.34743V8.28889C98.9409 7.91213 99.2461 7.60712 99.623 7.60712H100.682C101.059 7.60712 101.364 7.91213 101.364 8.28889V9.34743ZM104.667 23.9696C104.667 23.6287 104.936 23.3596 105.277 23.3596C105.618 23.3596 105.888 23.6287 105.888 23.9696C105.888 24.3105 105.618 24.5796 105.277 24.5796C104.936 24.5796 104.667 24.3105 104.667 23.9696ZM104.505 18.8563C104.505 18.4796 104.811 18.1746 105.188 18.1746H105.349C105.726 18.1746 106.031 18.4796 106.031 18.8563V19.0178C106.031 19.3946 105.726 19.6996 105.349 19.6996H105.188C104.811 19.6996 104.505 19.3946 104.505 19.0178V18.8563ZM104.326 13.761C104.326 13.3304 104.685 12.9716 105.116 12.9716H105.349C105.78 12.9716 106.139 13.3304 106.139 13.761V13.9942C106.139 14.4248 105.78 14.7837 105.349 14.7837H105.116C104.685 14.7837 104.326 14.4248 104.326 13.9942V13.761ZM104.146 8.55801C104.146 8.12742 104.505 7.7686 104.936 7.7686H105.475C105.906 7.7686 106.265 8.12742 106.265 8.55801V9.09625C106.265 9.52685 105.906 9.88567 105.475 9.88567H104.936C104.505 9.88567 104.146 9.52685 104.146 9.09625V8.55801ZM103.985 3.24738C103.985 2.87061 104.29 2.56561 104.667 2.56561H105.726C106.103 2.56561 106.408 2.87061 106.408 3.24738V4.30592C106.408 4.68269 106.103 4.98769 105.726 4.98769H104.667C104.29 4.98769 103.985 4.68269 103.985 4.30592V3.24738ZM103.877 6.83565C103.877 7.21241 103.572 7.51742 103.195 7.51742H102.136C101.759 7.51742 101.454 7.21241 101.454 6.83565V5.77711C101.454 5.40034 101.759 5.09534 102.136 5.09534H103.195C103.572 5.09534 103.877 5.40034 103.877 5.77711V6.83565ZM103.752 11.608C103.752 12.0386 103.393 12.3975 102.962 12.3975H102.423C101.992 12.3975 101.633 12.0386 101.633 11.608V11.0698C101.633 10.6392 101.992 10.2804 102.423 10.2804H102.962C103.393 10.2804 103.752 10.6392 103.752 11.0698V11.608ZM103.626 16.506C103.626 16.9366 103.267 17.2954 102.836 17.2954H102.603C102.172 17.2954 101.813 16.9366 101.813 16.506V16.2728C101.813 15.8422 102.172 15.4834 102.603 15.4834H102.836C103.267 15.4834 103.626 15.8422 103.626 16.2728V16.506ZM103.5 21.5296C103.5 21.9064 103.195 22.2114 102.818 22.2114H102.657C102.28 22.2114 101.975 21.9064 101.975 21.5296V21.3681C101.975 20.9914 102.28 20.6864 102.657 20.6864H102.818C103.195 20.6864 103.5 20.9914 103.5 21.3681V21.5296ZM103.375 26.4993C103.375 26.8402 103.105 27.1093 102.764 27.1093C102.423 27.1093 102.154 26.8402 102.154 26.4993C102.154 26.1585 102.423 25.8893 102.764 25.8893C103.105 25.8893 103.375 26.1585 103.375 26.4993ZM102.782 32.0073C102.531 32.0073 102.334 31.81 102.334 31.5588C102.334 31.2897 102.531 31.0923 102.782 31.0923C103.034 31.0923 103.231 31.2897 103.231 31.5409C103.231 31.81 103.034 32.0073 102.782 32.0073Z" fill="#F9AC00" fill-opacity="0.87451"/>
</svg>
