<svg width="104" height="139" viewBox="0 0 104 139" fill="none" xmlns="http://www.w3.org/2000/svg">
<path d="M51.75 102.66C80.1 102.66 103.08 79.68 103.08 51.33C103.08 22.98 80.1 0 51.75 0C23.4 0 0.420044 22.98 0.420044 51.33C0.420044 79.68 23.4 102.66 51.75 102.66Z" fill="white"/>
<path d="M58.3555 138.223V102.453C69.1055 100.993 79.4754 96.133 87.7354 87.873C107.805 67.803 107.805 35.273 87.7354 15.203C84.9154 12.383 81.8355 9.95297 78.5955 7.92297C78.7055 8.16297 78.7555 8.42298 78.7555 8.70298V9.99298C78.7555 11.053 77.8954 11.913 76.8354 11.913H75.5455C74.4855 11.913 73.6255 11.053 73.6255 9.99298V8.70298C73.6255 7.64298 74.4855 6.78297 75.5455 6.78297H76.6655C75.4455 6.09297 74.2055 5.45298 72.9355 4.87298C72.7655 5.60298 72.1155 6.15298 71.3255 6.15298H68.7555C67.8455 6.15298 67.1055 5.41297 67.1055 4.50297V2.60298C64.9655 1.91298 62.7855 1.38298 60.5955 0.982983C60.6055 1.05298 60.6154 1.12298 60.6154 1.20298V4.87298C60.6154 5.48298 60.1254 5.97297 59.5154 5.97297H55.8455C55.2355 5.97297 54.7455 5.48298 54.7455 4.87298V1.20298C54.7455 0.822984 54.9355 0.492975 55.2155 0.302975C52.8355 0.122975 50.4455 0.112976 48.0555 0.272976C48.3055 0.412976 48.4755 0.682983 48.4755 0.982983V5.20298C48.4755 5.66298 48.1055 6.02298 47.6555 6.02298H43.4355C42.9755 6.02298 42.6154 5.65298 42.6154 5.20298V0.982983C42.6154 0.982983 42.6154 0.932975 42.6154 0.912975C40.5454 1.27298 38.4855 1.75297 36.4655 2.36297V5.64297C36.4655 5.94297 36.2155 6.19297 35.9155 6.19297H31.1454C30.8454 6.19297 30.5955 5.94297 30.5955 5.64297V4.53297C29.3055 5.10297 28.0355 5.73298 26.7855 6.41298H29.8255C30.1255 6.41298 30.3755 6.66298 30.3755 6.96298V11.733C30.3755 12.033 30.1255 12.283 29.8255 12.283H25.0555C24.7555 12.283 24.5055 12.033 24.5055 11.733V7.73298C21.1355 9.80298 17.9555 12.293 15.0455 15.203C12.1255 18.123 9.63546 21.313 7.56546 24.683H11.5555C11.8555 24.683 12.1055 24.933 12.1055 25.233V30.003C12.1055 30.303 11.8555 30.553 11.5555 30.553H6.78546C6.48546 30.553 6.23544 30.303 6.23544 30.003V26.973C5.55544 28.223 4.93545 29.483 4.36545 30.773H5.46545C5.76545 30.773 6.01544 31.023 6.01544 31.323V36.093C6.01544 36.393 5.76545 36.643 5.46545 36.643H2.19547C1.58547 38.663 1.09545 40.723 0.745453 42.793C0.765453 42.793 0.785451 42.793 0.805451 42.793H5.02545C5.48545 42.793 5.84546 43.163 5.84546 43.623V47.843C5.84546 48.293 5.47545 48.663 5.02545 48.663H0.805451C0.505451 48.663 0.245469 48.503 0.105469 48.263C-0.0445307 50.633 -0.0345319 53.013 0.135468 55.373C0.335468 55.093 0.655452 54.913 1.02545 54.913H4.69547C5.30547 54.913 5.79547 55.403 5.79547 56.013V59.683C5.79547 60.293 5.30547 60.783 4.69547 60.783H1.02545C0.955452 60.783 0.885471 60.783 0.825471 60.763C1.22547 62.963 1.76547 65.133 2.44547 67.273H4.32547C5.23547 67.273 5.97546 68.013 5.97546 68.923V71.493C5.97546 72.273 5.43545 72.923 4.71545 73.093C5.29545 74.353 5.92545 75.583 6.61545 76.803V75.693C6.61545 74.633 7.47546 73.773 8.53546 73.773H9.82547C10.8855 73.773 11.7455 74.633 11.7455 75.693V76.983C11.7455 78.043 10.8855 78.903 9.82547 78.903H8.53546C8.26546 78.903 8.00544 78.843 7.76544 78.743C9.79544 81.993 12.2155 85.053 15.0455 87.883C23.3055 96.143 33.6854 101.003 44.4254 102.463V138.233M6.04547 49.923C6.04547 49.313 6.53545 48.823 7.14545 48.823H10.8155C11.4255 48.823 11.9155 49.313 11.9155 49.923V53.593C11.9155 54.203 11.4255 54.693 10.8155 54.693H7.14545C6.53545 54.693 6.04547 54.203 6.04547 53.593V49.923ZM11.9655 41.733C11.9655 42.193 11.5954 42.553 11.1454 42.553H6.92545C6.46545 42.553 6.10547 42.183 6.10547 41.733V37.513C6.10547 37.053 6.47545 36.693 6.92545 36.693H11.1454C11.6054 36.693 11.9655 37.063 11.9655 37.513V41.733ZM12.0855 65.393C12.0855 66.303 11.3455 67.043 10.4355 67.043H7.86545C6.95545 67.043 6.21545 66.303 6.21545 65.393V62.823C6.21545 61.913 6.95545 61.173 7.86545 61.173H10.4355C11.3455 61.173 12.0855 61.913 12.0855 62.823V65.393ZM26.1655 94.723C26.1655 93.913 26.8155 93.263 27.6255 93.263H27.6555C28.4655 93.263 29.1154 93.913 29.1154 94.723V94.753C29.1154 95.563 28.4655 96.213 27.6555 96.213H27.6255C26.8155 96.213 26.1655 95.563 26.1655 94.753V94.723ZM25.7455 82.323C25.7455 81.413 26.4854 80.673 27.3954 80.673H27.7855C28.6955 80.673 29.4355 81.413 29.4355 82.323V82.713C29.4355 83.623 28.6955 84.363 27.7855 84.363H27.3954C26.4854 84.363 25.7455 83.623 25.7455 82.713V82.323ZM25.3255 70.003C25.3255 68.943 26.1855 68.083 27.2455 68.083H27.8055C28.8655 68.083 29.7255 68.943 29.7255 70.003V70.563C29.7255 71.623 28.8655 72.483 27.8055 72.483H27.2455C26.1855 72.483 25.3255 71.623 25.3255 70.563V70.003ZM24.9055 57.423C24.9055 56.363 25.7655 55.503 26.8255 55.503H28.1154C29.1754 55.503 30.0355 56.363 30.0355 57.423V58.713C30.0355 59.773 29.1754 60.633 28.1154 60.633H26.8255C25.7655 60.633 24.9055 59.773 24.9055 58.713V57.423ZM19.6555 88.413C19.6555 87.503 20.3955 86.763 21.3055 86.763H21.6955C22.6055 86.763 23.3455 87.503 23.3455 88.413V88.803C23.3455 89.713 22.6055 90.453 21.6955 90.453H21.3055C20.3955 90.453 19.6555 89.713 19.6555 88.803V88.413ZM19.2354 76.093C19.2354 75.033 20.0955 74.173 21.1555 74.173H21.7155C22.7755 74.173 23.6355 75.033 23.6355 76.093V76.653C23.6355 77.713 22.7755 78.573 21.7155 78.573H21.1555C20.0955 78.573 19.2354 77.713 19.2354 76.653V76.093ZM18.8155 63.513C18.8155 62.453 19.6754 61.593 20.7354 61.593H22.0255C23.0855 61.593 23.9455 62.453 23.9455 63.513V64.803C23.9455 65.863 23.0855 66.723 22.0255 66.723H20.7354C19.6754 66.723 18.8155 65.863 18.8155 64.803V63.513ZM18.3954 50.653C18.3954 49.743 19.1355 49.003 20.0455 49.003H22.6154C23.5254 49.003 24.2654 49.743 24.2654 50.653V53.223C24.2654 54.133 23.5254 54.873 22.6154 54.873H20.0455C19.1355 54.873 18.3954 54.133 18.3954 53.223V50.653ZM13.1454 82.183C13.1454 81.123 14.0055 80.263 15.0655 80.263H15.6255C16.6855 80.263 17.5455 81.123 17.5455 82.183V82.743C17.5455 83.803 16.6855 84.663 15.6255 84.663H15.0655C14.0055 84.663 13.1454 83.803 13.1454 82.743V82.183ZM12.7255 69.603C12.7255 68.543 13.5854 67.683 14.6454 67.683H15.9355C16.9955 67.683 17.8555 68.543 17.8555 69.603V70.893C17.8555 71.953 16.9955 72.813 15.9355 72.813H14.6454C13.5854 72.813 12.7255 71.953 12.7255 70.893V69.603ZM12.3055 56.733C12.3055 55.823 13.0454 55.083 13.9554 55.083H16.5255C17.4355 55.083 18.1754 55.823 18.1754 56.733V59.303C18.1754 60.213 17.4355 60.953 16.5255 60.953H13.9554C13.0454 60.953 12.3055 60.213 12.3055 59.303V56.733ZM12.1355 43.833C12.1355 43.223 12.6254 42.733 13.2354 42.733H16.9055C17.5155 42.733 18.0055 43.223 18.0055 43.833V47.503C18.0055 48.113 17.5155 48.603 16.9055 48.603H13.2354C12.6254 48.603 12.1355 48.113 12.1355 47.503V43.833ZM12.1855 31.433C12.1855 30.973 12.5555 30.613 13.0055 30.613H17.2255C17.6855 30.613 18.0455 30.983 18.0455 31.433V35.653C18.0455 36.113 17.6755 36.473 17.2255 36.473H13.0055C12.5455 36.473 12.1855 36.103 12.1855 35.653V31.433ZM18.2155 23.913C18.2155 24.213 17.9655 24.463 17.6655 24.463H12.8954C12.5954 24.463 12.3455 24.213 12.3455 23.913V19.143C12.3455 18.843 12.5954 18.593 12.8954 18.593H17.6655C17.9655 18.593 18.2155 18.843 18.2155 19.143V23.913ZM18.2155 37.743C18.2155 37.133 18.7055 36.643 19.3155 36.643H22.9854C23.5954 36.643 24.0854 37.133 24.0854 37.743V41.413C24.0854 42.023 23.5954 42.513 22.9854 42.513H19.3155C18.7055 42.513 18.2155 42.023 18.2155 41.413V37.743ZM18.2755 25.343C18.2755 24.883 18.6455 24.523 19.0955 24.523H23.3155C23.7755 24.523 24.1355 24.893 24.1355 25.343V29.563C24.1355 30.023 23.7655 30.383 23.3155 30.383H19.0955C18.6355 30.383 18.2755 30.013 18.2755 29.563V25.343ZM24.3055 17.823C24.3055 18.123 24.0555 18.373 23.7555 18.373H18.9854C18.6854 18.373 18.4355 18.123 18.4355 17.823V13.053C18.4355 12.753 18.6854 12.503 18.9854 12.503H23.7555C24.0555 12.503 24.3055 12.753 24.3055 13.053V17.823ZM24.3055 31.653C24.3055 31.043 24.7955 30.553 25.4055 30.553H29.0755C29.6855 30.553 30.1754 31.043 30.1754 31.653V35.323C30.1754 35.933 29.6855 36.423 29.0755 36.423H25.4055C24.7955 36.423 24.3055 35.933 24.3055 35.323V31.653ZM30.2255 23.473C30.2255 23.933 29.8555 24.293 29.4055 24.293H25.1855C24.7255 24.293 24.3654 23.923 24.3654 23.473V19.253C24.3654 18.793 24.7355 18.433 25.1855 18.433H29.4055C29.8655 18.433 30.2255 18.803 30.2255 19.253V23.473ZM30.3555 47.133C30.3555 48.043 29.6154 48.783 28.7054 48.783H26.1355C25.2255 48.783 24.4854 48.043 24.4854 47.133V44.563C24.4854 43.653 25.2255 42.913 26.1355 42.913H28.7054C29.6154 42.913 30.3555 43.653 30.3555 44.563V47.133ZM32.2555 88.633C32.2555 87.823 32.9055 87.173 33.7155 87.173H33.7455C34.5555 87.173 35.2054 87.823 35.2054 88.633V88.663C35.2054 89.473 34.5555 90.123 33.7455 90.123H33.7155C32.9055 90.123 32.2555 89.473 32.2555 88.663V88.633ZM31.8354 76.233C31.8354 75.323 32.5754 74.583 33.4854 74.583H33.8755C34.7855 74.583 35.5255 75.323 35.5255 76.233V76.623C35.5255 77.533 34.7855 78.273 33.8755 78.273H33.4854C32.5754 78.273 31.8354 77.533 31.8354 76.623V76.233ZM31.4155 63.913C31.4155 62.853 32.2754 61.993 33.3354 61.993H33.8954C34.9554 61.993 35.8155 62.853 35.8155 63.913V64.473C35.8155 65.533 34.9554 66.393 33.8954 66.393H33.3354C32.2754 66.393 31.4155 65.533 31.4155 64.473V63.913ZM30.9955 51.333C30.9955 50.273 31.8555 49.413 32.9155 49.413H34.2054C35.2654 49.413 36.1255 50.273 36.1255 51.333V52.623C36.1255 53.683 35.2654 54.543 34.2054 54.543H32.9155C31.8555 54.543 30.9955 53.683 30.9955 52.623V51.333ZM30.3954 25.563C30.3954 24.953 30.8855 24.463 31.4955 24.463H35.1655C35.7755 24.463 36.2654 24.953 36.2654 25.563V29.233C36.2654 29.843 35.7755 30.333 35.1655 30.333H31.4955C30.8855 30.333 30.3954 29.843 30.3954 29.233V25.563ZM36.3155 17.383C36.3155 17.843 35.9455 18.203 35.4955 18.203H31.2755C30.8155 18.203 30.4554 17.833 30.4554 17.383V13.163C30.4554 12.703 30.8255 12.343 31.2755 12.343H35.4955C35.9555 12.343 36.3155 12.713 36.3155 13.163V17.383ZM36.4455 41.043C36.4455 41.953 35.7055 42.693 34.7955 42.693H32.2255C31.3155 42.693 30.5755 41.953 30.5755 41.043V38.473C30.5755 37.563 31.3155 36.823 32.2255 36.823H34.7955C35.7055 36.823 36.4455 37.563 36.4455 38.473V41.043ZM93.1454 27.733C93.1454 26.923 93.7955 26.273 94.6055 26.273H94.6355C95.4455 26.273 96.0955 26.923 96.0955 27.733V27.763C96.0955 28.573 95.4455 29.223 94.6355 29.223H94.6055C93.7955 29.223 93.1454 28.573 93.1454 27.763V27.733ZM87.0555 33.823C87.0555 33.013 87.7054 32.363 88.5154 32.363H88.5455C89.3555 32.363 90.0055 33.013 90.0055 33.823V33.853C90.0055 34.663 89.3555 35.313 88.5455 35.313H88.5154C87.7054 35.313 87.0555 34.663 87.0555 33.853V33.823ZM86.6355 21.423C86.6355 20.513 87.3755 19.773 88.2855 19.773H88.6754C89.5854 19.773 90.3255 20.513 90.3255 21.423V21.813C90.3255 22.723 89.5854 23.463 88.6754 23.463H88.2855C87.3755 23.463 86.6355 22.723 86.6355 21.813V21.423ZM80.9655 39.913C80.9655 39.103 81.6154 38.453 82.4254 38.453H82.4554C83.2654 38.453 83.9155 39.103 83.9155 39.913V39.943C83.9155 40.753 83.2654 41.403 82.4554 41.403H82.4254C81.6154 41.403 80.9655 40.753 80.9655 39.943V39.913ZM80.5455 27.513C80.5455 26.603 81.2855 25.863 82.1955 25.863H82.5854C83.4954 25.863 84.2354 26.603 84.2354 27.513V27.903C84.2354 28.813 83.4954 29.553 82.5854 29.553H82.1955C81.2855 29.553 80.5455 28.813 80.5455 27.903V27.513ZM80.1355 15.203C80.1355 14.143 80.9955 13.283 82.0555 13.283H82.6154C83.6754 13.283 84.5355 14.143 84.5355 15.203V15.763C84.5355 16.823 83.6754 17.683 82.6154 17.683H82.0555C80.9955 17.683 80.1355 16.823 80.1355 15.763V15.203ZM74.8755 46.003C74.8755 45.193 75.5254 44.543 76.3354 44.543H76.3654C77.1754 44.543 77.8255 45.193 77.8255 46.003V46.033C77.8255 46.843 77.1754 47.493 76.3654 47.493H76.3354C75.5254 47.493 74.8755 46.843 74.8755 46.033V46.003ZM74.4554 33.603C74.4554 32.693 75.1955 31.953 76.1055 31.953H76.4955C77.4055 31.953 78.1454 32.693 78.1454 33.603V33.993C78.1454 34.903 77.4055 35.643 76.4955 35.643H76.1055C75.1955 35.643 74.4554 34.903 74.4554 33.993V33.603ZM74.0455 21.293C74.0455 20.233 74.9055 19.373 75.9655 19.373H76.5255C77.5855 19.373 78.4455 20.233 78.4455 21.293V21.863C78.4455 22.923 77.5855 23.783 76.5255 23.783H75.9655C74.9055 23.783 74.0455 22.923 74.0455 21.863V21.293ZM68.7855 52.093C68.7855 51.283 69.4355 50.633 70.2455 50.633H70.2755C71.0855 50.633 71.7354 51.293 71.7354 52.093V52.123C71.7354 52.933 71.0855 53.583 70.2755 53.583H70.2455C69.4355 53.583 68.7855 52.933 68.7855 52.123V52.093ZM68.3654 39.693C68.3654 38.783 69.1054 38.043 70.0154 38.043H70.4055C71.3155 38.043 72.0555 38.783 72.0555 39.693V40.083C72.0555 40.993 71.3155 41.733 70.4055 41.733H70.0154C69.1054 41.733 68.3654 40.993 68.3654 40.083V39.693ZM67.9554 27.383C67.9554 26.323 68.8155 25.463 69.8755 25.463H70.4355C71.4955 25.463 72.3555 26.323 72.3555 27.383V27.943C72.3555 29.003 71.4955 29.863 70.4355 29.863H69.8755C68.8155 29.863 67.9554 29.003 67.9554 27.943V27.383ZM67.5355 14.793C67.5355 13.733 68.3954 12.873 69.4554 12.873H70.7455C71.8055 12.873 72.6655 13.733 72.6655 14.793V16.083C72.6655 17.143 71.8055 18.003 70.7455 18.003H69.4554C68.3954 18.003 67.5355 17.143 67.5355 16.083V14.793ZM50.5154 70.393V70.363C50.5154 69.553 51.1655 68.903 51.9755 68.903H52.0055C52.8155 68.903 53.4655 69.553 53.4655 70.363V70.393C53.4655 71.203 52.8155 71.853 52.0055 71.853H51.9755C51.1655 71.853 50.5154 71.203 50.5154 70.393ZM52.0455 81.483H52.0655C52.6755 81.483 53.1655 81.973 53.1655 82.583V82.603C53.1655 83.213 52.6755 83.703 52.0655 83.703H52.0455C51.4355 83.703 50.9455 83.213 50.9455 82.603V82.583C50.9455 81.973 51.4355 81.483 52.0455 81.483ZM50.1055 58.343V57.953C50.1055 57.043 50.8455 56.303 51.7555 56.303H52.1454C53.0554 56.303 53.7955 57.043 53.7955 57.953V58.343C53.7955 59.253 53.0554 59.993 52.1454 59.993H51.7555C50.8455 59.993 50.1055 59.253 50.1055 58.343ZM49.6855 46.213V45.643C49.6855 44.583 50.5455 43.723 51.6055 43.723H52.1655C53.2255 43.723 54.0854 44.583 54.0854 45.643V46.213C54.0854 47.273 53.2255 48.133 52.1655 48.133H51.6055C50.5455 48.133 49.6855 47.273 49.6855 46.213ZM49.2654 34.353V33.063C49.2654 32.003 50.1255 31.143 51.1855 31.143H52.4755C53.5355 31.143 54.3954 32.003 54.3954 33.063V34.353C54.3954 35.413 53.5355 36.273 52.4755 36.273H51.1855C50.1255 36.273 49.2654 35.413 49.2654 34.353ZM45.9755 89.803H45.9554C45.3454 89.803 44.8555 89.313 44.8555 88.703V88.683C44.8555 88.073 45.3454 87.583 45.9554 87.583H45.9755C46.5855 87.583 47.0755 88.073 47.0755 88.683V88.703C47.0755 89.313 46.5855 89.803 45.9755 89.803ZM44.4355 76.453C44.4355 75.643 45.0854 74.993 45.8954 74.993H45.9254C46.7354 74.993 47.3855 75.643 47.3855 76.453V76.483C47.3855 77.293 46.7354 77.943 45.9254 77.943H45.8954C45.0854 77.943 44.4355 77.293 44.4355 76.483V76.453ZM44.0154 64.053C44.0154 63.143 44.7555 62.403 45.6655 62.403H46.0555C46.9655 62.403 47.7054 63.143 47.7054 64.053V64.443C47.7054 65.353 46.9655 66.093 46.0555 66.093H45.6655C44.7555 66.093 44.0154 65.353 44.0154 64.443V64.053ZM43.5955 51.743C43.5955 50.683 44.4554 49.823 45.5154 49.823H46.0755C47.1355 49.823 47.9955 50.683 47.9955 51.743V52.313C47.9955 53.373 47.1355 54.233 46.0755 54.233H45.5154C44.4554 54.233 43.5955 53.373 43.5955 52.313V51.743ZM43.1754 39.153C43.1754 38.093 44.0355 37.233 45.0955 37.233H46.3855C47.4455 37.233 48.3055 38.093 48.3055 39.153V40.443C48.3055 41.503 47.4455 42.363 46.3855 42.363H45.0955C44.0355 42.363 43.1754 41.503 43.1754 40.443V39.153ZM38.7555 94.763C38.7555 94.153 39.2455 93.663 39.8555 93.663H39.8755C40.4855 93.663 40.9755 94.153 40.9755 94.763V94.783C40.9755 95.393 40.4855 95.883 39.8755 95.883H39.8555C39.2455 95.883 38.7555 95.393 38.7555 94.783V94.763ZM38.3455 82.543C38.3455 81.733 38.9955 81.083 39.8055 81.083H39.8354C40.6454 81.083 41.2955 81.733 41.2955 82.543V82.573C41.2955 83.383 40.6454 84.033 39.8354 84.033H39.8055C38.9955 84.033 38.3455 83.383 38.3455 82.573V82.543ZM37.9254 70.143C37.9254 69.233 38.6655 68.493 39.5755 68.493H39.9655C40.8755 68.493 41.6154 69.233 41.6154 70.143V70.533C41.6154 71.443 40.8755 72.183 39.9655 72.183H39.5755C38.6655 72.183 37.9254 71.443 37.9254 70.533V70.143ZM37.5055 57.823C37.5055 56.763 38.3654 55.903 39.4254 55.903H39.9854C41.0454 55.903 41.9055 56.763 41.9055 57.823V58.383C41.9055 59.443 41.0454 60.303 39.9854 60.303H39.4254C38.3654 60.303 37.5055 59.443 37.5055 58.383V57.823ZM37.0854 45.243C37.0854 44.183 37.9455 43.323 39.0055 43.323H40.2955C41.3555 43.323 42.2155 44.183 42.2155 45.243V46.533C42.2155 47.593 41.3555 48.453 40.2955 48.453H39.0055C37.9455 48.453 37.0854 47.593 37.0854 46.533V45.243ZM36.4854 19.473C36.4854 18.863 36.9754 18.373 37.5854 18.373H41.2555C41.8655 18.373 42.3555 18.863 42.3555 19.473V23.143C42.3555 23.753 41.8655 24.243 41.2555 24.243H37.5854C36.9754 24.243 36.4854 23.753 36.4854 23.143V19.473ZM42.4055 11.293C42.4055 11.753 42.0354 12.113 41.5854 12.113H37.3654C36.9054 12.113 36.5455 11.743 36.5455 11.293V7.07298C36.5455 6.61298 36.9154 6.25297 37.3654 6.25297H41.5854C42.0454 6.25297 42.4055 6.62298 42.4055 7.07298V11.293ZM42.5355 34.953C42.5355 35.863 41.7955 36.603 40.8855 36.603H38.3155C37.4055 36.603 36.6655 35.863 36.6655 34.953V32.383C36.6655 31.473 37.4055 30.733 38.3155 30.733H40.8855C41.7955 30.733 42.5355 31.473 42.5355 32.383V34.953ZM48.4455 17.053C48.4455 17.663 47.9555 18.153 47.3455 18.153H43.6754C43.0654 18.153 42.5755 17.663 42.5755 17.053V13.383C42.5755 12.773 43.0654 12.283 43.6754 12.283H47.3455C47.9555 12.283 48.4455 12.773 48.4455 13.383V17.053ZM48.6255 28.863C48.6255 29.773 47.8855 30.513 46.9755 30.513H44.4055C43.4955 30.513 42.7555 29.773 42.7555 28.863V26.293C42.7555 25.383 43.4955 24.643 44.4055 24.643H46.9755C47.8855 24.643 48.6255 25.383 48.6255 26.293V28.863ZM54.5355 10.963C54.5355 11.573 54.0455 12.063 53.4355 12.063H49.7654C49.1554 12.063 48.6655 11.573 48.6655 10.963V7.29298C48.6655 6.68298 49.1554 6.19297 49.7654 6.19297H53.4355C54.0455 6.19297 54.5355 6.68298 54.5355 7.29298V10.963ZM54.7155 22.773C54.7155 23.683 53.9755 24.423 53.0655 24.423H50.4955C49.5855 24.423 48.8455 23.683 48.8455 22.773V20.203C48.8455 19.293 49.5855 18.553 50.4955 18.553H53.0655C53.9755 18.553 54.7155 19.293 54.7155 20.203V22.773ZM62.6955 58.183C62.6955 57.373 63.3455 56.723 64.1555 56.723H64.1855C64.9955 56.723 65.6454 57.373 65.6454 58.183V58.213C65.6454 59.023 64.9955 59.673 64.1855 59.673H64.1555C63.3455 59.673 62.6955 59.023 62.6955 58.213V58.183ZM62.2855 45.783C62.2855 44.873 63.0255 44.133 63.9355 44.133H64.3255C65.2355 44.133 65.9755 44.873 65.9755 45.783V46.173C65.9755 47.083 65.2355 47.823 64.3255 47.823H63.9355C63.0255 47.823 62.2855 47.083 62.2855 46.173V45.783ZM61.8654 33.473C61.8654 32.413 62.7255 31.553 63.7855 31.553H64.3455C65.4055 31.553 66.2654 32.413 66.2654 33.473V34.033C66.2654 35.093 65.4055 35.953 64.3455 35.953H63.7855C62.7255 35.953 61.8654 35.093 61.8654 34.033V33.473ZM61.4455 20.883C61.4455 19.823 62.3054 18.963 63.3654 18.963H64.6555C65.7155 18.963 66.5755 19.823 66.5755 20.883V22.173C66.5755 23.233 65.7155 24.093 64.6555 24.093H63.3654C62.3054 24.093 61.4455 23.233 61.4455 22.173V20.883ZM61.0255 8.02298C61.0255 7.11298 61.7654 6.37298 62.6754 6.37298H65.2455C66.1555 6.37298 66.8954 7.11298 66.8954 8.02298V10.593C66.8954 11.503 66.1555 12.243 65.2455 12.243H62.6754C61.7654 12.243 61.0255 11.503 61.0255 10.593V8.02298ZM60.8055 16.683C60.8055 17.593 60.0655 18.333 59.1555 18.333H56.5854C55.6754 18.333 54.9355 17.593 54.9355 16.683V14.113C54.9355 13.203 55.6754 12.463 56.5854 12.463H59.1555C60.0655 12.463 60.8055 13.203 60.8055 14.113V16.683ZM60.4955 28.263C60.4955 29.323 59.6355 30.183 58.5755 30.183H57.2855C56.2255 30.183 55.3654 29.323 55.3654 28.263V26.973C55.3654 25.913 56.2255 25.053 57.2855 25.053H58.5755C59.6355 25.053 60.4955 25.913 60.4955 26.973V28.263ZM60.1855 40.123C60.1855 41.183 59.3254 42.043 58.2654 42.043H57.7054C56.6454 42.043 55.7855 41.183 55.7855 40.123V39.563C55.7855 38.503 56.6454 37.643 57.7054 37.643H58.2654C59.3254 37.643 60.1855 38.503 60.1855 39.563V40.123ZM59.8755 52.263C59.8755 53.173 59.1355 53.913 58.2255 53.913H57.8354C56.9254 53.913 56.1855 53.173 56.1855 52.263V51.873C56.1855 50.963 56.9254 50.223 57.8354 50.223H58.2255C59.1355 50.223 59.8755 50.963 59.8755 51.873V52.263ZM59.5655 64.303C59.5655 65.113 58.9155 65.763 58.1055 65.763H58.0755C57.2655 65.763 56.6154 65.113 56.6154 64.303V64.273C56.6154 63.463 57.2655 62.813 58.0755 62.813H58.1055C58.9155 62.813 59.5655 63.463 59.5655 64.273V64.303ZM58.1555 77.623H58.1355C57.5255 77.623 57.0355 77.133 57.0355 76.523V76.503C57.0355 75.893 57.5255 75.403 58.1355 75.403H58.1555C58.7655 75.403 59.2555 75.893 59.2555 76.503V76.523C59.2555 77.133 58.7655 77.623 58.1555 77.623Z" fill="#F9AC00"/>
</svg>
