<svg width="104" height="140" viewBox="0 0 104 140" fill="none" xmlns="http://www.w3.org/2000/svg">
<path d="M51.75 103.5C80.1 103.5 103.08 80.52 103.08 52.17C103.08 23.82 80.1 0.839966 51.75 0.839966C23.4 0.839966 0.420044 23.82 0.420044 52.17C0.420044 80.52 23.4 103.5 51.75 103.5Z" fill="white"/>
<path d="M58.3555 139.063V103.293C69.1055 101.833 79.4754 96.9729 87.7354 88.7129C107.805 68.6429 107.805 36.1129 87.7354 16.0429C84.9154 13.2229 81.8355 10.7929 78.5955 8.76294C78.7055 9.00294 78.7555 9.26295 78.7555 9.54295V10.8329C78.7555 11.8929 77.8954 12.7529 76.8354 12.7529H75.5455C74.4855 12.7529 73.6255 11.8929 73.6255 10.8329V9.54295C73.6255 8.48295 74.4855 7.62294 75.5455 7.62294H76.6655C75.4455 6.93294 74.2055 6.29295 72.9355 5.71295C72.7655 6.44295 72.1155 6.99295 71.3255 6.99295H68.7555C67.8455 6.99295 67.1055 6.25294 67.1055 5.34294V3.44294C64.9655 2.75294 62.7855 2.22295 60.5955 1.82295C60.6055 1.89295 60.6154 1.96295 60.6154 2.04295V5.71295C60.6154 6.32295 60.1254 6.81294 59.5154 6.81294H55.8455C55.2355 6.81294 54.7455 6.32295 54.7455 5.71295V2.04295C54.7455 1.66295 54.9355 1.33294 55.2155 1.14294C52.8355 0.96294 50.4454 0.952942 48.0555 1.11294C48.3055 1.25294 48.4755 1.52295 48.4755 1.82295V6.04295C48.4755 6.50295 48.1055 6.86294 47.6555 6.86294H43.4355C42.9755 6.86294 42.6154 6.49295 42.6154 6.04295V1.82295C42.6154 1.82295 42.6154 1.77294 42.6154 1.75294C40.5454 2.11294 38.4855 2.59294 36.4655 3.20294V6.48294C36.4655 6.78294 36.2155 7.03294 35.9155 7.03294H31.1454C30.8454 7.03294 30.5955 6.78294 30.5955 6.48294V5.37294C29.3055 5.94294 28.0355 6.57294 26.7855 7.25294H29.8255C30.1255 7.25294 30.3755 7.50294 30.3755 7.80294V12.5729C30.3755 12.8729 30.1255 13.1229 29.8255 13.1229H25.0555C24.7555 13.1229 24.5055 12.8729 24.5055 12.5729V8.57295C21.1355 10.6429 17.9555 13.1329 15.0455 16.0429C12.1255 18.9629 9.63546 22.1529 7.56546 25.5229H11.5555C11.8555 25.5229 12.1055 25.7729 12.1055 26.0729V30.8429C12.1055 31.1429 11.8555 31.3929 11.5555 31.3929H6.78546C6.48546 31.3929 6.23544 31.1429 6.23544 30.8429V27.8129C5.55544 29.0629 4.93545 30.3229 4.36545 31.6129H5.46545C5.76545 31.6129 6.01544 31.8629 6.01544 32.1629V36.9329C6.01544 37.2329 5.76545 37.4829 5.46545 37.4829H2.19547C1.58547 39.5029 1.09545 41.5629 0.745453 43.6329C0.765453 43.6329 0.785451 43.6329 0.805451 43.6329H5.02545C5.48545 43.6329 5.84546 44.0029 5.84546 44.4629V48.6829C5.84546 49.1329 5.47545 49.503 5.02545 49.503H0.805451C0.505451 49.503 0.245469 49.3429 0.105469 49.1029C-0.0445307 51.4729 -0.0345319 53.8529 0.135468 56.2129C0.335468 55.9329 0.655452 55.753 1.02545 55.753H4.69547C5.30547 55.753 5.79547 56.2429 5.79547 56.8529V60.5229C5.79547 61.1329 5.30547 61.623 4.69547 61.623H1.02545C0.955452 61.623 0.885471 61.6229 0.825471 61.6029C1.22547 63.8029 1.76547 65.9729 2.44547 68.1129H4.32547C5.23547 68.1129 5.97546 68.8529 5.97546 69.7629V72.3329C5.97546 73.1129 5.43545 73.7629 4.71545 73.9329C5.29545 75.1929 5.92545 76.4229 6.61545 77.6429V76.533C6.61545 75.473 7.47546 74.6129 8.53546 74.6129H9.82547C10.8855 74.6129 11.7455 75.473 11.7455 76.533V77.8229C11.7455 78.8829 10.8855 79.7429 9.82547 79.7429H8.53546C8.26546 79.7429 8.00544 79.6829 7.76544 79.5829C9.79544 82.8329 12.2155 85.893 15.0455 88.723C23.3055 96.983 33.6854 101.843 44.4254 103.303V139.073M6.04547 50.7629C6.04547 50.1529 6.53545 49.6629 7.14545 49.6629H10.8155C11.4255 49.6629 11.9155 50.1529 11.9155 50.7629V54.4329C11.9155 55.0429 11.4255 55.533 10.8155 55.533H7.14545C6.53545 55.533 6.04547 55.0429 6.04547 54.4329V50.7629ZM11.9655 42.5729C11.9655 43.0329 11.5954 43.3929 11.1454 43.3929H6.92545C6.46545 43.3929 6.10547 43.0229 6.10547 42.5729V38.3529C6.10547 37.8929 6.47545 37.533 6.92545 37.533H11.1454C11.6054 37.533 11.9655 37.9029 11.9655 38.3529V42.5729ZM12.0855 66.2329C12.0855 67.1429 11.3455 67.8829 10.4355 67.8829H7.86545C6.95545 67.8829 6.21545 67.1429 6.21545 66.2329V63.6629C6.21545 62.7529 6.95545 62.0129 7.86545 62.0129H10.4355C11.3455 62.0129 12.0855 62.7529 12.0855 63.6629V66.2329ZM26.1655 95.563C26.1655 94.753 26.8155 94.1029 27.6255 94.1029H27.6555C28.4655 94.1029 29.1154 94.753 29.1154 95.563V95.5929C29.1154 96.4029 28.4655 97.0529 27.6555 97.0529H27.6255C26.8155 97.0529 26.1655 96.4029 26.1655 95.5929V95.563ZM25.7455 83.1629C25.7455 82.2529 26.4854 81.5129 27.3954 81.5129H27.7855C28.6955 81.5129 29.4355 82.2529 29.4355 83.1629V83.5529C29.4355 84.4629 28.6955 85.2029 27.7855 85.2029H27.3954C26.4854 85.2029 25.7455 84.4629 25.7455 83.5529V83.1629ZM25.3255 70.8429C25.3255 69.783 26.1855 68.9229 27.2455 68.9229H27.8055C28.8654 68.9229 29.7255 69.783 29.7255 70.8429V71.4029C29.7255 72.4629 28.8654 73.3229 27.8055 73.3229H27.2455C26.1855 73.3229 25.3255 72.4629 25.3255 71.4029V70.8429ZM24.9055 58.2629C24.9055 57.2029 25.7655 56.343 26.8255 56.343H28.1154C29.1754 56.343 30.0355 57.2029 30.0355 58.2629V59.5529C30.0355 60.6129 29.1754 61.473 28.1154 61.473H26.8255C25.7655 61.473 24.9055 60.6129 24.9055 59.5529V58.2629ZM19.6555 89.253C19.6555 88.3429 20.3955 87.6029 21.3055 87.6029H21.6955C22.6055 87.6029 23.3455 88.3429 23.3455 89.253V89.6429C23.3455 90.5529 22.6055 91.2929 21.6955 91.2929H21.3055C20.3955 91.2929 19.6555 90.5529 19.6555 89.6429V89.253ZM19.2354 76.9329C19.2354 75.8729 20.0955 75.0129 21.1555 75.0129H21.7155C22.7755 75.0129 23.6355 75.8729 23.6355 76.9329V77.4929C23.6355 78.5529 22.7755 79.4129 21.7155 79.4129H21.1555C20.0955 79.4129 19.2354 78.5529 19.2354 77.4929V76.9329ZM18.8155 64.3529C18.8155 63.2929 19.6754 62.4329 20.7354 62.4329H22.0255C23.0855 62.4329 23.9455 63.2929 23.9455 64.3529V65.6429C23.9455 66.7029 23.0855 67.563 22.0255 67.563H20.7354C19.6754 67.563 18.8155 66.7029 18.8155 65.6429V64.3529ZM18.3954 51.4929C18.3954 50.5829 19.1355 49.843 20.0455 49.843H22.6154C23.5254 49.843 24.2654 50.5829 24.2654 51.4929V54.063C24.2654 54.973 23.5254 55.7129 22.6154 55.7129H20.0455C19.1355 55.7129 18.3954 54.973 18.3954 54.063V51.4929ZM13.1454 83.0229C13.1454 81.9629 14.0055 81.1029 15.0655 81.1029H15.6255C16.6855 81.1029 17.5455 81.9629 17.5455 83.0229V83.5829C17.5455 84.6429 16.6855 85.503 15.6255 85.503H15.0655C14.0055 85.503 13.1454 84.6429 13.1454 83.5829V83.0229ZM12.7255 70.4429C12.7255 69.3829 13.5854 68.5229 14.6454 68.5229H15.9355C16.9955 68.5229 17.8555 69.3829 17.8555 70.4429V71.7329C17.8555 72.7929 16.9955 73.6529 15.9355 73.6529H14.6454C13.5854 73.6529 12.7255 72.7929 12.7255 71.7329V70.4429ZM12.3055 57.5729C12.3055 56.6629 13.0454 55.9229 13.9554 55.9229H16.5255C17.4355 55.9229 18.1754 56.6629 18.1754 57.5729V60.1429C18.1754 61.0529 17.4355 61.7929 16.5255 61.7929H13.9554C13.0454 61.7929 12.3055 61.0529 12.3055 60.1429V57.5729ZM12.1355 44.6729C12.1355 44.0629 12.6254 43.5729 13.2354 43.5729H16.9055C17.5155 43.5729 18.0055 44.0629 18.0055 44.6729V48.343C18.0055 48.953 17.5155 49.4429 16.9055 49.4429H13.2354C12.6254 49.4429 12.1355 48.953 12.1355 48.343V44.6729ZM12.1855 32.2729C12.1855 31.8129 12.5555 31.4529 13.0055 31.4529H17.2255C17.6855 31.4529 18.0455 31.8229 18.0455 32.2729V36.4929C18.0455 36.9529 17.6755 37.313 17.2255 37.313H13.0055C12.5455 37.313 12.1855 36.9429 12.1855 36.4929V32.2729ZM18.2155 24.7529C18.2155 25.0529 17.9655 25.3029 17.6655 25.3029H12.8954C12.5954 25.3029 12.3455 25.0529 12.3455 24.7529V19.9829C12.3455 19.6829 12.5954 19.4329 12.8954 19.4329H17.6655C17.9655 19.4329 18.2155 19.6829 18.2155 19.9829V24.7529ZM18.2155 38.5829C18.2155 37.9729 18.7055 37.4829 19.3155 37.4829H22.9854C23.5954 37.4829 24.0854 37.9729 24.0854 38.5829V42.253C24.0854 42.863 23.5954 43.3529 22.9854 43.3529H19.3155C18.7055 43.3529 18.2155 42.863 18.2155 42.253V38.5829ZM18.2755 26.1829C18.2755 25.7229 18.6455 25.3629 19.0955 25.3629H23.3155C23.7755 25.3629 24.1355 25.7329 24.1355 26.1829V30.403C24.1355 30.8629 23.7655 31.2229 23.3155 31.2229H19.0955C18.6355 31.2229 18.2755 30.853 18.2755 30.403V26.1829ZM24.3055 18.6629C24.3055 18.9629 24.0555 19.2129 23.7555 19.2129H18.9854C18.6854 19.2129 18.4355 18.9629 18.4355 18.6629V13.8929C18.4355 13.5929 18.6854 13.3429 18.9854 13.3429H23.7555C24.0555 13.3429 24.3055 13.5929 24.3055 13.8929V18.6629ZM24.3055 32.4929C24.3055 31.8829 24.7955 31.3929 25.4055 31.3929H29.0755C29.6855 31.3929 30.1754 31.8829 30.1754 32.4929V36.1629C30.1754 36.7729 29.6855 37.2629 29.0755 37.2629H25.4055C24.7955 37.2629 24.3055 36.7729 24.3055 36.1629V32.4929ZM30.2255 24.3129C30.2255 24.7729 29.8555 25.1329 29.4055 25.1329H25.1855C24.7255 25.1329 24.3654 24.7629 24.3654 24.3129V20.0929C24.3654 19.6329 24.7355 19.2729 25.1855 19.2729H29.4055C29.8655 19.2729 30.2255 19.6429 30.2255 20.0929V24.3129ZM30.3555 47.973C30.3555 48.883 29.6154 49.623 28.7054 49.623H26.1355C25.2255 49.623 24.4854 48.883 24.4854 47.973V45.403C24.4854 44.493 25.2255 43.753 26.1355 43.753H28.7054C29.6154 43.753 30.3555 44.493 30.3555 45.403V47.973ZM32.2555 89.473C32.2555 88.663 32.9055 88.0129 33.7155 88.0129H33.7455C34.5555 88.0129 35.2054 88.663 35.2054 89.473V89.503C35.2054 90.313 34.5555 90.9629 33.7455 90.9629H33.7155C32.9055 90.9629 32.2555 90.313 32.2555 89.503V89.473ZM31.8354 77.0729C31.8354 76.1629 32.5754 75.4229 33.4854 75.4229H33.8755C34.7855 75.4229 35.5255 76.1629 35.5255 77.0729V77.4629C35.5255 78.3729 34.7855 79.1129 33.8755 79.1129H33.4854C32.5754 79.1129 31.8354 78.3729 31.8354 77.4629V77.0729ZM31.4155 64.753C31.4155 63.693 32.2754 62.8329 33.3354 62.8329H33.8954C34.9554 62.8329 35.8155 63.693 35.8155 64.753V65.313C35.8155 66.3729 34.9554 67.2329 33.8954 67.2329H33.3354C32.2754 67.2329 31.4155 66.3729 31.4155 65.313V64.753ZM30.9955 52.1729C30.9955 51.1129 31.8555 50.253 32.9155 50.253H34.2054C35.2654 50.253 36.1255 51.1129 36.1255 52.1729V53.4629C36.1255 54.5229 35.2654 55.3829 34.2054 55.3829H32.9155C31.8555 55.3829 30.9955 54.5229 30.9955 53.4629V52.1729ZM30.3954 26.403C30.3954 25.7929 30.8855 25.3029 31.4955 25.3029H35.1655C35.7755 25.3029 36.2654 25.7929 36.2654 26.403V30.0729C36.2654 30.6829 35.7755 31.1729 35.1655 31.1729H31.4955C30.8855 31.1729 30.3954 30.6829 30.3954 30.0729V26.403ZM36.3155 18.2229C36.3155 18.6829 35.9455 19.0429 35.4955 19.0429H31.2755C30.8155 19.0429 30.4554 18.6729 30.4554 18.2229V14.0029C30.4554 13.5429 30.8255 13.1829 31.2755 13.1829H35.4955C35.9555 13.1829 36.3155 13.5529 36.3155 14.0029V18.2229ZM36.4455 41.8829C36.4455 42.7929 35.7055 43.533 34.7955 43.533H32.2255C31.3155 43.533 30.5755 42.7929 30.5755 41.8829V39.313C30.5755 38.403 31.3155 37.6629 32.2255 37.6629H34.7955C35.7055 37.6629 36.4455 38.403 36.4455 39.313V41.8829ZM93.1454 28.5729C93.1454 27.7629 93.7955 27.1129 94.6055 27.1129H94.6355C95.4455 27.1129 96.0955 27.7629 96.0955 28.5729V28.6029C96.0955 29.4129 95.4455 30.0629 94.6355 30.0629H94.6055C93.7955 30.0629 93.1454 29.4129 93.1454 28.6029V28.5729ZM87.0555 34.6629C87.0555 33.8529 87.7054 33.2029 88.5154 33.2029H88.5455C89.3555 33.2029 90.0055 33.8529 90.0055 34.6629V34.6929C90.0055 35.5029 89.3555 36.153 88.5455 36.153H88.5154C87.7054 36.153 87.0555 35.5029 87.0555 34.6929V34.6629ZM86.6355 22.2629C86.6355 21.3529 87.3755 20.6129 88.2855 20.6129H88.6754C89.5854 20.6129 90.3255 21.3529 90.3255 22.2629V22.653C90.3255 23.563 89.5854 24.3029 88.6754 24.3029H88.2855C87.3755 24.3029 86.6355 23.563 86.6355 22.653V22.2629ZM80.9655 40.753C80.9655 39.943 81.6154 39.2929 82.4254 39.2929H82.4554C83.2654 39.2929 83.9155 39.943 83.9155 40.753V40.783C83.9155 41.593 83.2654 42.2429 82.4554 42.2429H82.4254C81.6154 42.2429 80.9655 41.593 80.9655 40.783V40.753ZM80.5455 28.3529C80.5455 27.4429 81.2855 26.7029 82.1955 26.7029H82.5854C83.4955 26.7029 84.2354 27.4429 84.2354 28.3529V28.7429C84.2354 29.6529 83.4955 30.3929 82.5854 30.3929H82.1955C81.2855 30.3929 80.5455 29.6529 80.5455 28.7429V28.3529ZM80.1355 16.0429C80.1355 14.983 80.9955 14.1229 82.0555 14.1229H82.6154C83.6754 14.1229 84.5355 14.983 84.5355 16.0429V16.6029C84.5355 17.6629 83.6754 18.5229 82.6154 18.5229H82.0555C80.9955 18.5229 80.1355 17.6629 80.1355 16.6029V16.0429ZM74.8755 46.843C74.8755 46.033 75.5255 45.3829 76.3354 45.3829H76.3654C77.1754 45.3829 77.8255 46.033 77.8255 46.843V46.873C77.8255 47.683 77.1754 48.3329 76.3654 48.3329H76.3354C75.5255 48.3329 74.8755 47.683 74.8755 46.873V46.843ZM74.4554 34.4429C74.4554 33.5329 75.1955 32.7929 76.1055 32.7929H76.4955C77.4055 32.7929 78.1454 33.5329 78.1454 34.4429V34.8329C78.1454 35.7429 77.4055 36.4829 76.4955 36.4829H76.1055C75.1955 36.4829 74.4554 35.7429 74.4554 34.8329V34.4429ZM74.0455 22.1329C74.0455 21.0729 74.9055 20.2129 75.9655 20.2129H76.5255C77.5854 20.2129 78.4455 21.0729 78.4455 22.1329V22.7029C78.4455 23.7629 77.5854 24.6229 76.5255 24.6229H75.9655C74.9055 24.6229 74.0455 23.7629 74.0455 22.7029V22.1329ZM68.7855 52.9329C68.7855 52.1229 69.4355 51.473 70.2455 51.473H70.2755C71.0854 51.473 71.7354 52.1329 71.7354 52.9329V52.9629C71.7354 53.7729 71.0854 54.4229 70.2755 54.4229H70.2455C69.4355 54.4229 68.7855 53.7729 68.7855 52.9629V52.9329ZM68.3654 40.533C68.3654 39.623 69.1054 38.8829 70.0154 38.8829H70.4055C71.3155 38.8829 72.0555 39.623 72.0555 40.533V40.9229C72.0555 41.8329 71.3155 42.5729 70.4055 42.5729H70.0154C69.1054 42.5729 68.3654 41.8329 68.3654 40.9229V40.533ZM67.9554 28.2229C67.9554 27.1629 68.8155 26.3029 69.8755 26.3029H70.4355C71.4955 26.3029 72.3555 27.1629 72.3555 28.2229V28.7829C72.3555 29.8429 71.4955 30.7029 70.4355 30.7029H69.8755C68.8155 30.7029 67.9554 29.8429 67.9554 28.7829V28.2229ZM67.5355 15.6329C67.5355 14.5729 68.3954 13.7129 69.4554 13.7129H70.7455C71.8055 13.7129 72.6655 14.5729 72.6655 15.6329V16.9229C72.6655 17.9829 71.8055 18.8429 70.7455 18.8429H69.4554C68.3954 18.8429 67.5355 17.9829 67.5355 16.9229V15.6329ZM50.5154 71.2329V71.2029C50.5154 70.3929 51.1655 69.7429 51.9755 69.7429H52.0055C52.8155 69.7429 53.4655 70.3929 53.4655 71.2029V71.2329C53.4655 72.0429 52.8155 72.6929 52.0055 72.6929H51.9755C51.1655 72.6929 50.5154 72.0429 50.5154 71.2329ZM52.0455 82.3229H52.0655C52.6755 82.3229 53.1655 82.8129 53.1655 83.4229V83.4429C53.1655 84.0529 52.6755 84.5429 52.0655 84.5429H52.0455C51.4355 84.5429 50.9455 84.0529 50.9455 83.4429V83.4229C50.9455 82.8129 51.4355 82.3229 52.0455 82.3229ZM50.1055 59.1829V58.7929C50.1055 57.8829 50.8455 57.1429 51.7555 57.1429H52.1454C53.0554 57.1429 53.7955 57.8829 53.7955 58.7929V59.1829C53.7955 60.0929 53.0554 60.8329 52.1454 60.8329H51.7555C50.8455 60.8329 50.1055 60.0929 50.1055 59.1829ZM49.6855 47.0529V46.4829C49.6855 45.4229 50.5455 44.563 51.6055 44.563H52.1655C53.2255 44.563 54.0854 45.4229 54.0854 46.4829V47.0529C54.0854 48.1129 53.2255 48.973 52.1655 48.973H51.6055C50.5455 48.973 49.6855 48.1129 49.6855 47.0529ZM49.2654 35.1929V33.903C49.2654 32.843 50.1255 31.9829 51.1855 31.9829H52.4755C53.5355 31.9829 54.3954 32.843 54.3954 33.903V35.1929C54.3954 36.2529 53.5355 37.1129 52.4755 37.1129H51.1855C50.1255 37.1129 49.2654 36.2529 49.2654 35.1929ZM45.9755 90.6429H45.9554C45.3454 90.6429 44.8555 90.1529 44.8555 89.5429V89.5229C44.8555 88.9129 45.3454 88.4229 45.9554 88.4229H45.9755C46.5855 88.4229 47.0755 88.9129 47.0755 89.5229V89.5429C47.0755 90.1529 46.5855 90.6429 45.9755 90.6429ZM44.4355 77.2929C44.4355 76.4829 45.0854 75.8329 45.8954 75.8329H45.9254C46.7354 75.8329 47.3855 76.4829 47.3855 77.2929V77.3229C47.3855 78.1329 46.7354 78.783 45.9254 78.783H45.8954C45.0854 78.783 44.4355 78.1329 44.4355 77.3229V77.2929ZM44.0154 64.8929C44.0154 63.9829 44.7555 63.2429 45.6655 63.2429H46.0555C46.9655 63.2429 47.7054 63.9829 47.7054 64.8929V65.283C47.7054 66.193 46.9655 66.9329 46.0555 66.9329H45.6655C44.7555 66.9329 44.0154 66.193 44.0154 65.283V64.8929ZM43.5955 52.5829C43.5955 51.5229 44.4554 50.6629 45.5154 50.6629H46.0755C47.1355 50.6629 47.9955 51.5229 47.9955 52.5829V53.153C47.9955 54.213 47.1355 55.0729 46.0755 55.0729H45.5154C44.4554 55.0729 43.5955 54.213 43.5955 53.153V52.5829ZM43.1754 39.9929C43.1754 38.9329 44.0355 38.0729 45.0955 38.0729H46.3855C47.4455 38.0729 48.3055 38.9329 48.3055 39.9929V41.283C48.3055 42.343 47.4455 43.2029 46.3855 43.2029H45.0955C44.0355 43.2029 43.1754 42.343 43.1754 41.283V39.9929ZM38.7555 95.6029C38.7555 94.9929 39.2455 94.503 39.8555 94.503H39.8755C40.4855 94.503 40.9755 94.9929 40.9755 95.6029V95.6229C40.9755 96.2329 40.4855 96.723 39.8755 96.723H39.8555C39.2455 96.723 38.7555 96.2329 38.7555 95.6229V95.6029ZM38.3455 83.3829C38.3455 82.5729 38.9954 81.9229 39.8055 81.9229H39.8354C40.6455 81.9229 41.2955 82.5729 41.2955 83.3829V83.4129C41.2955 84.2229 40.6455 84.8729 39.8354 84.8729H39.8055C38.9954 84.8729 38.3455 84.2229 38.3455 83.4129V83.3829ZM37.9254 70.9829C37.9254 70.0729 38.6655 69.3329 39.5755 69.3329H39.9655C40.8755 69.3329 41.6154 70.0729 41.6154 70.9829V71.3729C41.6154 72.283 40.8755 73.0229 39.9655 73.0229H39.5755C38.6655 73.0229 37.9254 72.283 37.9254 71.3729V70.9829ZM37.5055 58.6629C37.5055 57.6029 38.3654 56.7429 39.4254 56.7429H39.9854C41.0454 56.7429 41.9055 57.6029 41.9055 58.6629V59.223C41.9055 60.283 41.0454 61.1429 39.9854 61.1429H39.4254C38.3654 61.1429 37.5055 60.283 37.5055 59.223V58.6629ZM37.0854 46.0829C37.0854 45.0229 37.9455 44.1629 39.0055 44.1629H40.2955C41.3555 44.1629 42.2155 45.0229 42.2155 46.0829V47.373C42.2155 48.433 41.3555 49.2929 40.2955 49.2929H39.0055C37.9455 49.2929 37.0854 48.433 37.0854 47.373V46.0829ZM36.4854 20.3129C36.4854 19.7029 36.9754 19.2129 37.5854 19.2129H41.2555C41.8655 19.2129 42.3555 19.7029 42.3555 20.3129V23.9829C42.3555 24.5929 41.8655 25.0829 41.2555 25.0829H37.5854C36.9754 25.0829 36.4854 24.5929 36.4854 23.9829V20.3129ZM42.4055 12.1329C42.4055 12.5929 42.0354 12.9529 41.5854 12.9529H37.3654C36.9054 12.9529 36.5455 12.5829 36.5455 12.1329V7.91294C36.5455 7.45294 36.9154 7.09294 37.3654 7.09294H41.5854C42.0454 7.09294 42.4055 7.46294 42.4055 7.91294V12.1329ZM42.5355 35.7929C42.5355 36.7029 41.7955 37.4429 40.8855 37.4429H38.3155C37.4055 37.4429 36.6655 36.7029 36.6655 35.7929V33.223C36.6655 32.313 37.4055 31.5729 38.3155 31.5729H40.8855C41.7955 31.5729 42.5355 32.313 42.5355 33.223V35.7929ZM48.4455 17.8929C48.4455 18.5029 47.9555 18.9929 47.3455 18.9929H43.6754C43.0654 18.9929 42.5755 18.5029 42.5755 17.8929V14.2229C42.5755 13.6129 43.0654 13.1229 43.6754 13.1229H47.3455C47.9555 13.1229 48.4455 13.6129 48.4455 14.2229V17.8929ZM48.6255 29.7029C48.6255 30.6129 47.8855 31.3529 46.9755 31.3529H44.4055C43.4955 31.3529 42.7555 30.6129 42.7555 29.7029V27.1329C42.7555 26.2229 43.4955 25.4829 44.4055 25.4829H46.9755C47.8855 25.4829 48.6255 26.2229 48.6255 27.1329V29.7029ZM54.5355 11.8029C54.5355 12.4129 54.0455 12.903 53.4355 12.903H49.7654C49.1554 12.903 48.6655 12.4129 48.6655 11.8029V8.13295C48.6655 7.52295 49.1554 7.03294 49.7654 7.03294H53.4355C54.0455 7.03294 54.5355 7.52295 54.5355 8.13295V11.8029ZM54.7155 23.6129C54.7155 24.5229 53.9755 25.2629 53.0655 25.2629H50.4955C49.5855 25.2629 48.8455 24.5229 48.8455 23.6129V21.0429C48.8455 20.1329 49.5855 19.3929 50.4955 19.3929H53.0655C53.9755 19.3929 54.7155 20.1329 54.7155 21.0429V23.6129ZM62.6955 59.0229C62.6955 58.2129 63.3455 57.563 64.1555 57.563H64.1855C64.9955 57.563 65.6454 58.2129 65.6454 59.0229V59.0529C65.6454 59.8629 64.9955 60.5129 64.1855 60.5129H64.1555C63.3455 60.5129 62.6955 59.8629 62.6955 59.0529V59.0229ZM62.2855 46.623C62.2855 45.713 63.0255 44.973 63.9355 44.973H64.3255C65.2355 44.973 65.9755 45.713 65.9755 46.623V47.0129C65.9755 47.9229 65.2355 48.6629 64.3255 48.6629H63.9355C63.0255 48.6629 62.2855 47.9229 62.2855 47.0129V46.623ZM61.8654 34.313C61.8654 33.253 62.7255 32.3929 63.7855 32.3929H64.3455C65.4055 32.3929 66.2654 33.253 66.2654 34.313V34.873C66.2654 35.933 65.4055 36.7929 64.3455 36.7929H63.7855C62.7255 36.7929 61.8654 35.933 61.8654 34.873V34.313ZM61.4455 21.7229C61.4455 20.6629 62.3054 19.8029 63.3654 19.8029H64.6555C65.7155 19.8029 66.5755 20.6629 66.5755 21.7229V23.0129C66.5755 24.0729 65.7155 24.9329 64.6555 24.9329H63.3654C62.3054 24.9329 61.4455 24.0729 61.4455 23.0129V21.7229ZM61.0255 8.86294C61.0255 7.95294 61.7654 7.21295 62.6754 7.21295H65.2455C66.1555 7.21295 66.8954 7.95294 66.8954 8.86294V11.4329C66.8954 12.3429 66.1555 13.0829 65.2455 13.0829H62.6754C61.7654 13.0829 61.0255 12.3429 61.0255 11.4329V8.86294ZM60.8055 17.5229C60.8055 18.4329 60.0655 19.1729 59.1555 19.1729H56.5854C55.6754 19.1729 54.9355 18.4329 54.9355 17.5229V14.9529C54.9355 14.0429 55.6754 13.3029 56.5854 13.3029H59.1555C60.0655 13.3029 60.8055 14.0429 60.8055 14.9529V17.5229ZM60.4955 29.1029C60.4955 30.1629 59.6355 31.0229 58.5755 31.0229H57.2855C56.2255 31.0229 55.3654 30.1629 55.3654 29.1029V27.8129C55.3654 26.7529 56.2255 25.8929 57.2855 25.8929H58.5755C59.6355 25.8929 60.4955 26.7529 60.4955 27.8129V29.1029ZM60.1855 40.9629C60.1855 42.0229 59.3254 42.8829 58.2654 42.8829H57.7054C56.6454 42.8829 55.7855 42.0229 55.7855 40.9629V40.403C55.7855 39.3429 56.6454 38.4829 57.7054 38.4829H58.2654C59.3254 38.4829 60.1855 39.3429 60.1855 40.403V40.9629ZM59.8755 53.1029C59.8755 54.0129 59.1355 54.753 58.2255 54.753H57.8354C56.9254 54.753 56.1855 54.0129 56.1855 53.1029V52.7129C56.1855 51.8029 56.9254 51.063 57.8354 51.063H58.2255C59.1355 51.063 59.8755 51.8029 59.8755 52.7129V53.1029ZM59.5655 65.1429C59.5655 65.9529 58.9155 66.6029 58.1055 66.6029H58.0755C57.2655 66.6029 56.6154 65.9529 56.6154 65.1429V65.1129C56.6154 64.3029 57.2655 63.653 58.0755 63.653H58.1055C58.9155 63.653 59.5655 64.3029 59.5655 65.1129V65.1429ZM58.1555 78.4629H58.1355C57.5255 78.4629 57.0355 77.9729 57.0355 77.3629V77.3429C57.0355 76.7329 57.5255 76.2429 58.1355 76.2429H58.1555C58.7655 76.2429 59.2555 76.7329 59.2555 77.3429V77.3629C59.2555 77.9729 58.7655 78.4629 58.1555 78.4629Z" fill="#AADDF6"/>
</svg>
